<?xml version="1.0" encoding="UTF-8"?>
<svg version="1.1" xmlns="http://www.w3.org/2000/svg" width="512" height="512">
<path d="M0 0 C0.99261841 0.00215515 1.98523682 0.0043103 3.00793457 0.00653076 C62.82869575 0.21485219 62.82869575 0.21485219 80.8984375 13.78515625 C84.52935776 17.867434 85.93818507 21.33303905 86.171875 26.81640625 C85.65474186 32.3238742 83.30523543 36.04245996 79.3125 39.75 C73.74717386 43.41139877 68.18826396 43.1622813 61.70263672 41.86572266 C59.14849291 41.27076707 56.60492568 40.64318566 54.0625 40 C-4.23483477 25.33995021 -64.89364394 36.06108889 -116.31054688 66.64990234 C-130.37896211 75.35716506 -143.11927698 85.90623387 -155.0625 97.3125 C-155.98804688 98.18519531 -156.91359375 99.05789062 -157.8671875 99.95703125 C-165.02529843 106.88194593 -171.10731491 114.35115101 -177.0625 122.3125 C-177.48917969 122.87308105 -177.91585937 123.43366211 -178.35546875 124.01123047 C-185.60973876 133.56733616 -191.54222569 143.67022993 -197.0625 154.3125 C-197.45324707 155.06128418 -197.84399414 155.81006836 -198.24658203 156.58154297 C-214.10922991 187.3682599 -221.51770261 221.12664341 -221.4375 255.625 C-221.43618576 257.01004227 -221.43618576 257.01004227 -221.43484497 258.42306519 C-221.25119397 317.28352801 -197.57588135 371.07697704 -157.0625 413.3125 C-156.28003906 414.13621094 -155.49757813 414.95992188 -154.69140625 415.80859375 C-139.31856787 431.61987316 -120.62235498 444.29496085 -101.0625 454.3125 C-100.3195166 454.69889648 -99.5765332 455.08529297 -98.81103516 455.48339844 C-46.75218466 482.31692993 14.54700289 485.84888824 70.05664062 468.26123047 C103.54586774 457.23249008 132.62047593 438.59722951 157.9375 414.3125 C158.76121094 413.53003906 159.58492188 412.74757813 160.43359375 411.94140625 C166.09095743 406.44091921 171.09674871 400.53859787 175.9375 394.3125 C176.36289062 393.76883789 176.78828125 393.22517578 177.2265625 392.66503906 C207.58028394 353.59127923 223.41552846 305.75321641 223.3125 256.4375 C223.31262085 255.54330353 223.3127417 254.64910706 223.31286621 253.72781372 C223.27520971 234.07615606 220.74800323 215.66633956 215.703125 196.66796875 C214.25229844 190.3094993 213.74113215 184.84327815 216.5625 178.875 C221.08596174 173.99442286 225.0859242 171.655661 231.703125 171.22265625 C236.88673893 171.43108828 240.51073049 173.55189538 243.94921875 177.26953125 C247.64704876 181.73035087 248.81124736 186.42757158 250.0625 192 C250.42915771 193.58530518 250.42915771 193.58530518 250.80322266 195.20263672 C251.55367024 198.56560765 252.25374923 201.93537852 252.9375 205.3125 C253.15212891 206.33972168 253.36675781 207.36694336 253.58789062 208.42529297 C259.54231713 238.14544243 260.02410825 272.57963921 253.9375 302.3125 C253.74414062 303.30910645 253.55078125 304.30571289 253.3515625 305.33251953 C245.23278127 346.42132055 227.86334885 383.51549494 201.9375 416.3125 C201.12539063 417.35019531 200.31328125 418.38789063 199.4765625 419.45703125 C186.81157313 435.01858759 172.26124403 449.61464417 155.9375 461.3125 C154.59224408 462.30180622 153.24720229 463.29140366 151.90234375 464.28125 C120.59556909 487.08129792 85.03737825 502.30078684 46.9375 509.3125 C46.13683105 509.47331055 45.33616211 509.63412109 44.51123047 509.79980469 C16.44422956 515.289821 -17.06434244 515.06193715 -45.0625 509.3125 C-46.07505859 509.11382324 -47.08761719 508.91514648 -48.13085938 508.71044922 C-89.22350049 500.49315205 -126.15886417 483.05232803 -159.0625 457.3125 C-159.60165039 456.89339355 -160.14080078 456.47428711 -160.69628906 456.04248047 C-176.35091766 443.7395608 -191.1795208 429.11297587 -202.85302734 412.96630859 C-204.11636046 411.23885229 -205.42205472 409.55071483 -206.73828125 407.86328125 C-214.61279174 397.64694524 -221.00017986 386.68167875 -227.0625 375.3125 C-227.72596436 374.07185791 -227.72596436 374.07185791 -228.40283203 372.80615234 C-239.91954842 350.90300738 -247.5905584 326.61190111 -252.0625 302.3125 C-252.30371582 301.11149658 -252.30371582 301.11149658 -252.54980469 299.88623047 C-258.0419441 271.80837547 -257.79646692 238.32272065 -252.0625 210.3125 C-251.77246094 208.81759033 -251.77246094 208.81759033 -251.4765625 207.29248047 C-243.84790781 168.68418872 -228.13507683 132.53083121 -204.0625 101.3125 C-203.09763672 100.05953125 -203.09763672 100.05953125 -202.11328125 98.78125 C-188.01045377 80.82715922 -171.65646589 63.63892592 -153.0625 50.3125 C-152.52077148 49.920625 -151.97904297 49.52875 -151.42089844 49.125 C-130.40047257 33.97334745 -107.63659835 21.60021655 -83.0625 13.3125 C-81.83998535 12.89943604 -81.83998535 12.89943604 -80.59277344 12.47802734 C-70.82192323 9.23994494 -60.94031263 6.70764527 -50.875 4.5625 C-49.95033936 4.36374268 -49.02567871 4.16498535 -48.07299805 3.96020508 C-32.05614523 0.70606264 -16.30155568 -0.06372854 0 0 Z " fill="#000000" transform="translate(255.0625,-0.31250000000000006)"/>
<path d="M0 0 C3.62229207 3.72445928 4.55358084 6.70098854 5.0625 11.875 C4.92033506 16.57532845 3.40147631 20.24940556 0.6875 24.0625 C-3.92585598 28.24670659 -8.2909661 28.93925394 -14.3125 29.0625 C-17.72642331 28.67300101 -21.02936432 27.9605543 -24.375 27.1875 C-60.70269637 19.16386562 -99.10299494 25.81248592 -130.6484375 45.6484375 C-151.0009906 58.84169336 -167.49834693 75.8316266 -179.3125 97.0625 C-179.64733398 97.6611084 -179.98216797 98.2597168 -180.32714844 98.87646484 C-198.21600733 131.30317103 -202.17547909 170.17384192 -192.31201172 205.76220703 C-186.19766171 226.56693023 -176.65164738 244.71128754 -162.3125 261.0625 C-161.61769531 261.89007813 -160.92289062 262.71765625 -160.20703125 263.5703125 C-136.6753352 290.91680081 -100.96988742 307.11521899 -65.3125 310.0625 C-23.63714144 312.20426544 14.33325858 298.28474581 45.20751953 270.44042969 C72.00968735 245.48638231 87.42923862 208.94359001 88.97265625 172.60546875 C89.31517879 158.58553886 87.77261026 144.92600967 84.58203125 131.27734375 C83.36256695 125.87845339 83.2418299 121.15779366 85.62890625 116.046875 C88.48763381 111.55593665 91.49306335 109.55920209 96.6875 108.0625 C102.02970704 107.32742888 106.16352649 108.04651766 110.6875 111.0625 C121.15882677 120.03792295 121.66181512 141.18788919 122.6875 154.0625 C125.38658562 203.61435726 109.44940167 249.92587212 76.48046875 286.98828125 C75.5517062 288.01503971 74.62087994 289.03993718 73.6875 290.0625 C72.94113281 290.88105469 72.19476563 291.69960938 71.42578125 292.54296875 C41.67553907 323.61299986 -2.40727397 342.49477024 -45.15869141 344.17431641 C-95.4880778 345.16760273 -140.00464334 329.11654953 -177.3125 295.0625 C-178.13105469 294.31613281 -178.94960937 293.56976563 -179.79296875 292.80078125 C-211.40612588 262.5304839 -230.36567293 217.6491789 -231.515625 174.171875 C-232.126322 124.5420469 -215.8161143 80.76732826 -182.3125 44.0625 C-181.56613281 43.24394531 -180.81976563 42.42539063 -180.05078125 41.58203125 C-144.40983805 4.35997412 -47.5316887 -37.83134407 0 0 Z " fill="#000000" transform="translate(310.3125,88.9375)"/>
<path d="M0 0 C4.98666719 2.31523834 7.28945882 5.28842534 10 10 C10.55085743 12.59647392 10.87688281 14.87808265 11.0625 17.5 C11.13065918 18.27102051 11.19881836 19.04204102 11.26904297 19.83642578 C11.43002019 21.70826195 11.58139378 23.58093529 11.72607422 25.45410156 C11.99730585 28.96512494 12.28482232 32.4744842 12.57536316 35.98394775 C13.2053945 43.61031016 13.82114741 51.237848 14.4140625 58.8671875 C14.47332413 59.6123764 14.53258575 60.35756531 14.59364319 61.12533569 C14.87248814 64.75908055 15.06701564 68.35524291 15 72 C15.77263184 72.0501123 16.54526367 72.10022461 17.34130859 72.15185547 C25.87985215 72.70781261 34.41733391 73.27816795 42.95410156 73.86071777 C44.91725269 73.99436667 46.88049944 74.12660883 48.84375 74.25878906 C52.35477961 74.49792169 55.86492572 74.74727465 59.375 75 C60.42993652 75.0707373 61.48487305 75.14147461 62.57177734 75.21435547 C71.40523498 75.86831467 78.53656984 76.53656984 85 83 C87.08258403 86.28078306 87.32597097 89.02131852 87.375 92.875 C87.40335938 93.88304688 87.43171875 94.89109375 87.4609375 95.9296875 C86.50683745 102.28496411 81.63546342 106.66263173 77.2409668 111.04956055 C76.67616608 111.62107849 76.11136536 112.19259644 75.52944946 112.78143311 C73.67461574 114.65515019 71.81243846 116.52134292 69.94921875 118.38671875 C68.64876452 119.69360575 67.34845862 121.00064037 66.04829407 122.30781555 C63.32749323 125.04056364 60.60261839 127.76917449 57.87524414 130.49536133 C54.38825496 133.98214705 50.91524206 137.48250282 47.44560528 140.98654461 C44.76636735 143.68805772 42.07804965 146.38039321 39.38712502 149.070261 C38.10294506 150.35679439 36.82199145 151.64655692 35.5444088 152.93964195 C33.75474239 154.74898736 31.95274292 156.54512207 30.1472168 158.33862305 C29.62697433 158.87010452 29.10673187 159.401586 28.57072449 159.94917297 C22.85450305 165.56954103 16.93563039 167.36031615 9.12451172 168.04321289 C7.99385788 168.15609398 7.99385788 168.15609398 6.84036255 168.27125549 C4.37102555 168.51541692 1.90048795 168.74382712 -0.5703125 168.97265625 C-2.29722754 169.14173257 -4.02402292 169.3120351 -5.7507019 169.48350525 C-10.28193061 169.93116261 -14.81424483 170.36649802 -19.3470459 170.7979126 C-26.60857218 171.48953971 -33.86888797 172.19296073 -41.12798691 172.90960503 C-43.65831948 173.15654602 -46.18942481 173.39393689 -48.72073364 173.63063049 C-50.27496041 173.78209434 -51.82915147 173.93392512 -53.38330078 174.08618164 C-54.08368469 174.14908386 -54.7840686 174.21198608 -55.50567627 174.27679443 C-61.72685624 174.90292257 -65.68519864 176.30282958 -70.10499573 180.75769043 C-70.88860474 181.54006577 -71.67221375 182.3224411 -72.47956848 183.12852478 C-73.32492661 183.98781082 -74.17028473 184.84709686 -75.04125977 185.73242188 C-75.94264679 186.6365834 -76.84403381 187.54074493 -77.7727356 188.4723053 C-79.72942252 190.43507578 -81.68131128 192.4024537 -83.62961006 194.37355042 C-86.71074502 197.49052859 -89.802798 200.59652076 -92.89646912 203.7010498 C-98.90261127 209.73130352 -104.89738883 215.7727839 -110.89115906 221.81533051 C-118.52296736 229.50800069 -126.16039966 237.19506457 -133.80693287 244.87309885 C-136.88075226 247.96030374 -139.9492467 251.05267757 -143.01365483 254.14922333 C-144.46124647 255.61056182 -145.91109294 257.06961761 -147.36196899 258.5276947 C-149.13049529 260.30511995 -150.89538776 262.08617108 -152.65596008 263.87147522 C-153.82714386 265.04503822 -153.82714386 265.04503822 -155.02198792 266.24230957 C-155.69762063 266.92368233 -156.37325335 267.60505508 -157.06935978 268.3070755 C-161.76682203 272.42614898 -166.02125825 272.43054728 -172.0859375 272.3125 C-177.38740101 271.74397844 -179.83972495 269.22134216 -183.375 265.5 C-185.72325726 260.44221514 -185.97097307 255.48314207 -185 250 C-181.69223141 244.11573064 -176.94828159 239.7628344 -172.13232422 235.09570312 C-170.27860824 233.2813187 -168.42492102 231.4669049 -166.57125854 229.65246582 C-165.581028 228.68668295 -164.59066822 227.72103256 -163.60018539 226.75550842 C-160.52301166 223.75350686 -157.45912916 220.73818174 -154.39822388 217.71960449 C-153.87999585 217.20865124 -153.36176782 216.69769799 -152.82783592 216.17126131 C-151.76855169 215.12678746 -150.70929994 214.08228067 -149.65007997 213.03774166 C-142.53050845 206.01782198 -135.4028843 199.00668564 -128.23779297 192.03320312 C-123.39479128 187.31951507 -118.57378229 182.5845007 -113.77652752 177.82424879 C-111.24226323 175.31123555 -108.6984224 172.81011134 -106.12722397 170.33485413 C-103.25444469 167.56889266 -100.43107475 164.75701687 -97.60888672 161.93945312 C-96.76209351 161.13894531 -95.91530029 160.3384375 -95.04284668 159.51367188 C-88.57183298 152.92847625 -87.54095419 147.0514101 -87 138 C-86.84582673 136.59311685 -86.68551869 135.18686328 -86.51393127 133.78199768 C-86.40306686 132.62618698 -86.29220245 131.47037628 -86.17797852 130.27954102 C-86.08235626 129.29847633 -86.08235626 129.29847633 -85.98480225 128.29759216 C-85.84990722 126.9119869 -85.71626894 125.52625873 -85.58386421 124.14041328 C-85.37277777 121.94002221 -85.15626685 119.74022355 -84.93821716 117.54051208 C-84.31962822 111.29838443 -83.70443181 105.05597706 -83.10717773 98.81176758 C-82.73861833 94.96262524 -82.35891287 91.11471965 -81.97202873 87.26737785 C-81.82797841 85.81383367 -81.68803134 84.3598763 -81.55243111 82.90551949 C-81.36261517 80.87405157 -81.15857592 78.8444598 -80.95141602 76.81469727 C-80.83975601 75.66445572 -80.72809601 74.51421417 -80.61305237 73.32911682 C-79.27875752 66.08336807 -76.22652043 61.63702494 -71.12329102 56.63745117 C-70.5343103 56.04467377 -69.94532959 55.45189636 -69.33850098 54.84115601 C-67.40324878 52.89853796 -65.45405252 50.97062529 -63.50390625 49.04296875 C-62.14941156 47.69086033 -60.79565762 46.33800948 -59.44261169 44.98445129 C-56.61168293 42.15664347 -53.77418437 39.33566007 -50.93139648 36.51977539 C-47.2883349 32.9107573 -43.65864295 29.28864813 -40.03332615 25.66181469 C-37.24153113 22.87056343 -34.4445549 20.08455421 -31.64579582 17.30028725 C-30.30537558 15.96622792 -28.96616019 14.63095685 -27.62817574 13.29445457 C-25.75912248 11.42973801 -23.88363136 9.57175465 -22.00610352 7.71557617 C-21.4548027 7.16336899 -20.90350189 6.6111618 -20.335495 6.04222107 C-13.90732515 -0.27936003 -8.86462805 -0.95063035 0 0 Z M-21 54 C-34.10440697 63.29056715 -47.13191352 73.65308823 -50.39970398 90.09806824 C-52.96911421 106.60113236 -53.04678485 123.33714812 -53 140 C-14.06711774 141.66843738 -14.06711774 141.66843738 19.08032227 124.99145508 C24.11472558 119.62504457 28.74533595 114.00123205 33 108 C30.1204187 105.1204187 27.05136469 105.50846001 23.17578125 105.2890625 C21.57353679 105.17752661 19.97132417 105.06553261 18.36914062 104.953125 C15.84612596 104.78667017 13.32300037 104.62563237 10.79907227 104.47363281 C8.36085793 104.32317604 5.9248749 104.15108867 3.48828125 103.9765625 C2.7432283 103.93786041 1.99817535 103.89915833 1.23054504 103.85928345 C-3.90621456 103.47566355 -8.00667084 102.37934655 -12 99 C-15.94577572 94.33732896 -16.6684921 89.44237455 -16.9765625 83.51171875 C-17.0327475 82.72730911 -17.0889325 81.94289948 -17.14682007 81.13471985 C-17.32261095 78.65309985 -17.47544552 76.17082796 -17.625 73.6875 C-17.78459079 71.18668355 -17.94922257 68.68648196 -18.12460327 66.1867218 C-18.23247777 64.63707431 -18.33081205 63.08672689 -18.41860962 61.53581238 C-18.58480764 57.31256569 -18.58480764 57.31256569 -21 54 Z " fill="#000000" transform="translate(425,0)"/>
<path d="M0 0 C1.75606567 -0.01522705 1.75606567 -0.01522705 3.54760742 -0.03076172 C10.19862213 0.03765147 15.36839105 0.22245292 20.45703125 4.97265625 C25.02091484 10.94081172 25.57346751 14.96522177 24.8125 22.4375 C22.62723658 26.88896251 19.8730479 29.62635145 15.8125 32.4375 C12.46055914 33.55481362 10.08797782 33.46756392 6.5625 33.375 C-14.07360943 33.31137376 -30.47132614 38.17316988 -45.49609375 52.6640625 C-59.70259225 67.86421024 -63.04970734 84.6594304 -62.37109375 104.78710938 C-61.98347225 110.38287929 -60.41947745 115.29297493 -58.1875 120.4375 C-57.64416016 121.75041016 -57.64416016 121.75041016 -57.08984375 123.08984375 C-50.18999161 138.26951845 -37.40389497 149.41389313 -22.125 155.6875 C-5.1042168 161.40110565 12.92379856 160.243764 29.04882812 152.38085938 C44.6024557 144.06147718 55.02078207 130.451436 60.19775391 113.83618164 C61.85732824 108.03039432 62.63519632 102.21832495 63.00488281 96.19702148 C63.48488565 89.96075816 65.84694729 86.30477507 70.3125 82.0625 C75.47750009 79.66446425 80.2127288 79.68368465 85.8125 80.4375 C90.7790024 82.74337611 93.21031961 85.67225716 95.8125 90.4375 C96.38763725 93.55696271 96.38281976 96.58530624 96.3125 99.75 C96.29968994 100.63010742 96.28687988 101.51021484 96.27368164 102.41699219 C95.45971089 129.24662741 82.25103903 151.8985917 63.0625 170.0625 C41.6588711 188.79067529 16.576017 193.88896984 -10.97851562 192.66064453 C-36.79573038 190.86538173 -59.31485796 176.25623376 -76.02734375 157.15625 C-93.97066397 134.57297536 -99.03495812 107.92902985 -95.89013672 79.77539062 C-92.11508919 55.28584945 -77.33715053 33.65266774 -58.1875 18.4375 C-40.22292731 5.82062871 -21.70869741 0.13615918 0 0 Z " fill="#000000" transform="translate(256.1875,159.5625)"/>
</svg>
